<svg width="62" height="50" viewBox="0 0 62 50" fill="none" xmlns="http://www.w3.org/2000/svg">
<path d="M45 50H16.4286C6.6 50 0 43.4 0 33.5714V16.4286C0 6.6 6.6 0 16.4286 0H45C54.8286 0 61.4286 6.6 61.4286 16.4286V33.5714C61.4286 43.4 54.8286 50 45 50ZM16.4286 4.28571C9.05714 4.28571 4.28571 9.05714 4.28571 16.4286V33.5714C4.28571 40.9429 9.05714 45.7143 16.4286 45.7143H45C52.3714 45.7143 57.1429 40.9429 57.1429 33.5714V16.4286C57.1429 9.05714 52.3714 4.28571 45 4.28571H16.4286Z" fill="white"/>
<path d="M26.6851 35.0863C25.8565 35.0863 25.0565 34.8863 24.3421 34.4863C22.6849 33.5435 21.7134 31.6292 21.7134 29.2577V20.8006C21.7134 18.4292 22.6564 16.515 24.3421 15.5721C25.9994 14.6293 28.1419 14.8006 30.1705 16.0292L37.2279 20.2577C39.1708 21.4292 40.2848 23.172 40.2848 25.0292C40.2848 26.8863 39.1708 28.6292 37.2279 29.8006L30.1705 34.0292C28.9991 34.7149 27.7993 35.0863 26.6851 35.0863ZM26.6851 19.2007C26.5708 19.2007 26.4848 19.2292 26.4276 19.2578C26.2276 19.372 25.9991 19.8863 25.9991 20.772V29.2292C25.9991 30.0863 26.2276 30.6006 26.4276 30.7435C26.6562 30.8577 27.1994 30.8006 27.9422 30.3435L34.9991 26.1149C35.7134 25.6863 35.9708 25.2577 35.9708 25.0006C35.9708 24.7435 35.7134 24.3435 34.9991 23.8863L27.9422 19.6577C27.4279 19.3435 26.9708 19.2007 26.6851 19.2007Z" fill="white"/>
</svg>
