<svg width="25" height="28" viewBox="0 0 47 48" fill="none" xmlns="http://www.w3.org/2000/svg">
<path d="M37.4377 36.4653H13.901C11.7131 36.4653 9.61355 35.5371 8.13284 33.9238C6.65213 32.3104 5.90074 30.1446 6.07755 27.9567L7.91186 5.94494C7.97816 5.25984 7.73504 4.59686 7.27093 4.08855C6.80683 3.58025 6.16595 3.31502 5.48084 3.31502H1.65751C0.751406 3.31502 0 2.56362 0 1.65751C0 0.751406 0.751406 0 1.65751 0H5.50296C7.11628 0 8.64114 0.685105 9.72405 1.85641C10.3208 2.51942 10.7628 3.29292 11.0059 4.15483H38.609C40.8411 4.15483 42.8964 5.03884 44.3992 6.63005C45.8799 8.24336 46.6313 10.3429 46.4545 12.575L45.2611 29.1501C45.018 33.1944 41.482 36.4653 37.4377 36.4653ZM11.1164 7.44776L9.39257 28.2219C9.28207 29.5037 9.70197 30.7192 10.5639 31.6695C11.4258 32.6198 12.6192 33.1281 13.901 33.1281H37.4377C39.7361 33.1281 41.8135 31.1833 41.9903 28.8849L43.1837 12.3098C43.2721 11.0059 42.8522 9.76829 41.9903 8.86219C41.1284 7.93398 39.935 7.42563 38.6311 7.42563H11.1164V7.44776Z" fill="white"/>
<path d="M33.1505 47.5154C30.7195 47.5154 28.7305 45.5263 28.7305 43.0953C28.7305 40.6643 30.7195 38.6753 33.1505 38.6753C35.5815 38.6753 37.5705 40.6643 37.5705 43.0953C37.5705 45.5263 35.5815 47.5154 33.1505 47.5154ZM33.1505 41.9903C32.5317 41.9903 32.0455 42.4765 32.0455 43.0953C32.0455 43.7141 32.5317 44.2003 33.1505 44.2003C33.7693 44.2003 34.2555 43.7141 34.2555 43.0953C34.2555 42.4765 33.7693 41.9903 33.1505 41.9903Z" fill="white"/>
<path d="M15.4708 47.5154C13.0398 47.5154 11.0508 45.5263 11.0508 43.0953C11.0508 40.6643 13.0398 38.6753 15.4708 38.6753C17.9018 38.6753 19.8908 40.6643 19.8908 43.0953C19.8908 45.5263 17.9018 47.5154 15.4708 47.5154ZM15.4708 41.9903C14.852 41.9903 14.3658 42.4765 14.3658 43.0953C14.3658 43.7141 14.852 44.2003 15.4708 44.2003C16.0896 44.2003 16.5758 43.7141 16.5758 43.0953C16.5758 42.4765 16.0896 41.9903 15.4708 41.9903Z" fill="white"/>
<path d="M43.6484 16.5752H17.1282C16.2221 16.5752 15.4707 15.8238 15.4707 14.9176C15.4707 14.0115 16.2221 13.2601 17.1282 13.2601H43.6484C44.5545 13.2601 45.3059 14.0115 45.3059 14.9176C45.3059 15.8238 44.5545 16.5752 43.6484 16.5752Z" fill="white"/>
</svg>
