<svg width="77" height="64" viewBox="0 0 77 64" fill="none" xmlns="http://www.w3.org/2000/svg">
<path d="M77 19.2703C76.9954 17.9655 76.3782 16.7283 75.3118 15.8915C75.0154 15.6546 74.6885 15.4522 74.3386 15.2886L40.5691 0.454288C39.2583 -0.151429 37.7213 -0.151429 36.409 0.454288L2.6608 15.28C1.59443 15.7694 0.761799 16.6163 0.327916 17.6555C-0.105968 18.6933 -0.109023 19.8473 0.317221 20.8865C0.744994 21.9271 1.57151 22.7797 2.63483 23.2749L17.1363 30.0268V46.1601C17.1363 55.9979 26.3349 64 37.6434 64H39.3346C50.6416 64 59.8402 55.9965 59.8402 46.1601V30.1143L66.9565 26.7685V32.6621C66.379 32.8802 65.884 33.2549 65.5357 33.7386C65.1858 34.2223 64.9995 34.7935 64.9964 35.3777V45.1912C64.9995 45.9677 65.3294 46.7141 65.9131 47.2624C66.4982 47.8121 67.2911 48.1222 68.1191 48.1236H68.2444C69.0725 48.1207 69.8638 47.8121 70.4505 47.2624C71.0356 46.7127 71.3656 45.9677 71.3672 45.1912V35.3777C71.3641 34.7935 71.1762 34.2223 70.8279 33.7386C70.478 33.2549 69.9845 32.8802 69.407 32.6606V25.6145L74.3799 23.2763C74.58 23.1816 74.7741 23.0739 74.9589 22.9548C76.2483 22.1223 77.0137 20.7415 76.9985 19.2717L77 19.2703ZM38.4898 4.62397L71.8973 19.2932L38.6792 34.9155L5.10674 19.2832L38.4898 4.62397ZM54.9407 46.1586C54.9407 53.4559 47.9405 59.394 39.3377 59.394H37.6465C29.0421 59.394 22.0419 53.4574 22.0419 46.1586V32.3075L36.574 39.0738C37.9077 39.691 39.4706 39.6881 40.8013 39.0666L54.9407 32.418V46.1586Z" fill="#6636DD"/>
</svg>
