<svg width="58" height="58" viewBox="0 0 58 58" fill="none" xmlns="http://www.w3.org/2000/svg">
<g id="Airplane">
<path id="Vector" fill-rule="evenodd" clip-rule="evenodd" d="M12.06 0C12.06 0 11.4168 0 11.4168 0.64206L6.91441 5.13648C6.27121 5.77854 6.27121 6.4206 6.91441 7.06266L25.5672 22.4721L12.7032 36.5974L5.62801 33.3871H4.98481C4.34161 33.3871 4.34161 33.3871 3.69841 34.0292L0.482401 36.5974C-0.1608 37.2395 -0.1608 38.5236 0.482401 39.1656L7.55761 46.2283C7.55761 47.5124 8.20081 48.1545 9.48722 48.7965C10.1304 49.4386 11.4168 50.0807 12.06 50.7227L19.1352 57.7854C19.1352 57.7854 20.4216 57.7854 21.0648 57.1433L24.2808 53.933C24.924 53.291 24.924 52.6489 24.2808 52.0068L20.4216 44.9442L34.5721 32.103L50.0089 50.7227C51.2953 51.3648 51.9385 51.3648 52.5817 50.7227L57.0841 46.2283C57.7273 46.2283 57.7273 44.9442 57.7273 44.3021L46.7929 21.83L53.8681 15.4094C58.3705 12.1991 57.7273 6.4206 54.5113 3.2103C52.5817 1.28412 50.6521 0.64206 48.0793 0.64206C46.1497 0.64206 43.5769 1.28412 42.2905 3.2103L35.8585 10.273L12.7032 0C12.7032 0 12.7032 0 12.06 0ZM12.7032 3.85236L33.2857 13.4833L27.4968 19.9039L10.7736 5.77854L12.7032 3.85236ZM48.7225 3.85236C50.0089 3.85236 51.2953 4.49442 52.5817 5.13648C54.5113 7.06266 54.5113 10.273 52.5817 12.1991L16.5624 44.3021C14.6328 45.5862 13.9896 46.8704 12.7032 46.8704C12.7032 46.8704 12.7032 46.8704 12.06 46.8704C12.06 46.8704 11.4168 46.8704 10.7736 46.2283V45.5862C10.7736 45.5862 10.7736 45.5862 10.7736 44.9442C11.4168 44.3021 12.06 43.018 13.3464 41.7339L44.8633 5.77854C46.1497 4.49442 47.4361 3.85236 48.7225 3.85236ZM44.2201 24.3983L53.8681 44.9442L51.9385 46.8704L37.7881 30.1768L44.2201 24.3983ZM4.98481 36.5974L10.1304 39.1656C9.48722 40.4498 8.84402 41.0918 8.20081 42.3759L3.69841 37.8815L4.98481 36.5974ZM17.8488 47.5124L20.4216 52.6489L19.7784 53.933L15.276 49.4386C16.5624 48.7965 17.2056 48.1545 17.8488 47.5124Z" fill="white"/>
</g>
</svg>
