<svg width="52" height="56" viewBox="0 0 52 56" fill="none" xmlns="http://www.w3.org/2000/svg">
<path id="Book" d="M40.1362 0H35.4143C28.9217 0 23.6095 5.25 23.6095 11.6667V11.725C21.6027 10.2083 19.0647 9.33333 16.5267 9.33333H2.36095C1.06243 9.33333 0 10.3833 0 11.6667V46.6667C0 47.95 1.06243 49 2.36095 49H16.5267C19.773 49 22.5471 51.1583 23.3734 54.25C23.6686 55.3 24.5539 56 25.6754 56H26.3246C27.3871 56 28.3314 55.3 28.6266 54.25C29.4529 51.1583 32.227 49 35.4733 49H49.639C50.9376 49 52 47.95 52 46.6667V11.6667C52 10.3833 50.9376 9.33333 49.639 9.33333H42.4972V2.33333C42.4972 1.05 41.4347 0 40.1362 0ZM28.3314 11.6667C28.3314 7.81667 31.5187 4.66667 35.4143 4.66667H37.7753V35H35.4143C32.8763 35 30.3383 35.875 28.3314 37.3917V11.6667ZM16.5267 44.3333H4.72191V14H16.5267C20.4222 14 23.6095 17.15 23.6095 21V46.725C21.6027 45.15 19.0647 44.3333 16.5267 44.3333ZM47.2191 14V44.3333H35.4143C32.8763 44.3333 30.3383 45.15 28.3314 46.725V46.6667C28.3314 42.8167 31.5187 39.6667 35.4143 39.6667H40.1362C41.4347 39.6667 42.4972 38.6167 42.4972 37.3333V14H47.2191Z" fill="white"/>
</svg>
