<svg width="52" height="48" viewBox="0 0 52 48" fill="none" xmlns="http://www.w3.org/2000/svg">
<path id="Computer" fill-rule="evenodd" clip-rule="evenodd" d="M3.23905 36.7162V34.0268H48.7592V36.7162H3.23905ZM31.9856 44.6675H20.0705L22.7312 39.9903H29.3249L31.9856 44.6675ZM48.8171 3.27406V30.7527H3.23905V3.27406H48.8171ZM48.9906 0H3.06553C1.38816 0 0 1.40317 0 3.09866V36.9501C0 38.6456 1.38816 40.0487 3.06553 40.0487H18.9716L15.8482 45.5445C15.3855 46.3045 15.6747 47.3569 16.4266 47.7661C16.658 47.8831 16.9472 48 17.2364 48H34.7619C35.6873 48 36.3814 47.24 36.3814 46.363C36.3814 46.0707 36.3236 45.7783 36.1501 45.5445L33.0267 40.0487H48.9327C50.6101 40.0487 51.9983 38.6456 51.9983 36.9501V3.09866C52.0561 1.3447 50.6679 0 48.9906 0Z" fill="white"/>
</svg>
