<svg width="59" height="48" viewBox="0 0 59 48" fill="none" xmlns="http://www.w3.org/2000/svg">
<g id="Hamburguer">
<path id="Vector" d="M58.4 25.777C58.4 24.0306 57.5617 22.3541 56.0947 21.3062C56.3043 21.0966 56.3742 20.7474 56.3742 20.4679C56.3742 9.15119 44.2191 0 29.2 0C14.1809 0 2.02584 9.15119 2.02584 20.4679C2.02584 20.7474 2.09569 21.0268 2.30526 21.3062C0.838278 22.3541 0 24.0306 0 25.777V26.5454C0 27.6632 0.349283 28.7809 0.977991 29.7588C4.16377e-07 31.5751 -0.139713 33.8105 0.768421 35.6966C1.18756 36.6746 1.95598 37.5129 2.86411 38.0019C6.00765 46.3847 17.3244 47.5024 29.2 47.5024C41.0756 47.5024 52.3225 46.3148 55.5359 38.0718C56.0249 37.8622 56.444 37.5129 56.7933 37.1636C58.4 35.4871 58.3301 32.9722 58.2603 32.4832C58.2603 31.5053 57.911 30.5273 57.3521 29.7588C58.0507 28.7809 58.4 27.6632 58.4 26.4756V25.777ZM29.2 2.7244C42.0536 2.7244 52.6019 9.91961 53.5799 19.0708H4.8201C5.79809 9.91961 16.3464 2.7244 29.2 2.7244ZM47.712 21.7952L29.8986 25.4277C29.4794 25.4976 29.0603 25.4976 28.5713 25.4277L13.9014 21.8651L47.712 21.7952ZM29.2 44.778C19.2804 44.778 9.7799 44.0096 6.28708 38.7005H6.49665C7.61435 38.4909 8.6622 37.8622 9.29091 36.8143C9.7799 36.1856 9.91962 36.0459 10.199 36.0459C10.4785 36.0459 10.5483 36.1158 11.0373 36.8143C11.666 37.9321 12.7837 38.6306 14.111 38.7005C15.3684 38.6306 16.556 37.9321 17.1847 36.8143C17.6737 36.1856 17.8134 36.0459 18.023 36.0459C18.2325 36.0459 18.3722 36.1158 18.8612 36.8143C19.4899 37.9321 20.6077 38.6306 21.9349 38.7005C23.1923 38.6306 24.3799 37.9321 25.0086 36.8143C25.4976 36.1856 25.6373 36.0459 25.8469 36.0459C26.0565 36.0459 26.1962 36.1158 26.6852 36.8143C27.5234 38.4909 29.6191 39.1196 31.2957 38.2813C31.9244 37.9321 32.4134 37.4431 32.7627 36.8143C33.2517 36.1856 33.3914 36.0459 33.6009 36.0459C33.8105 36.0459 33.9502 36.1158 34.4392 36.8143C35.2775 38.4909 37.3732 39.1895 39.0498 38.2813C39.6785 37.9321 40.2373 37.4431 40.5167 36.8143C41.0057 36.1856 41.1454 36.0459 41.355 36.0459C41.5646 36.0459 41.7043 36.1158 42.1933 36.8143C43.0316 38.4909 45.1273 39.1895 46.8038 38.2813C47.4325 37.9321 47.9914 37.4431 48.2708 36.8143C48.7598 36.1856 48.8995 36.0459 49.1091 36.0459C49.3187 36.0459 49.4584 36.1158 49.9474 36.8143L50.1569 37.0938L50.2268 37.1636C50.2966 37.2335 50.3665 37.3033 50.3665 37.3732L50.4364 37.4431L50.6459 37.6526L50.7158 37.7225C50.7856 37.7923 50.8555 37.8622 50.9254 37.9321L51.0651 38.0019L51.3445 38.2115L51.4143 38.2813C51.5541 38.3512 51.6938 38.421 51.8335 38.4909C51.9033 38.4909 51.9033 38.4909 51.9732 38.5608C52.0431 38.5608 52.1828 38.6306 52.2526 38.6306C48.6899 44.0096 39.1196 44.778 29.2 44.778ZM54.6976 35.3474C54.488 35.5569 54.2785 35.6966 53.999 35.8364C53.8593 35.9062 53.7196 35.9062 53.51 35.9761C53.3703 35.9761 53.2306 35.9761 53.021 35.9761H52.9512C52.8115 35.9761 52.6718 35.9062 52.5321 35.7665C52.4622 35.6966 52.3923 35.6268 52.3923 35.6268L52.1129 35.1378C51.2048 33.4612 49.1789 32.8325 47.5024 33.6708C46.8737 34.0201 46.3847 34.5091 46.0354 35.1378C45.5464 35.8364 45.4067 35.9062 45.1971 35.9062C44.9876 35.9062 44.8478 35.8364 44.3588 35.1378C43.5206 33.4612 41.4249 32.8325 39.7483 33.6708C39.1196 34.0201 38.6306 34.5091 38.2813 35.1378C37.7923 35.8364 37.6526 35.9062 37.4431 35.9062C37.2335 35.9062 37.0239 35.8364 36.5349 35.1378C35.6966 33.4612 33.601 32.8325 31.9244 33.6708C31.2957 34.0201 30.8067 34.5091 30.4574 35.1378C29.9684 35.8364 29.8287 35.9062 29.6191 35.9062C29.4096 35.9062 29.2699 35.8364 28.7809 35.1378C27.9426 33.4612 25.8469 32.8325 24.1703 33.6708C23.5416 34.0201 23.0526 34.5091 22.7033 35.1378C22.2144 35.8364 22.0746 35.9062 21.8651 35.9062C21.6555 35.9062 21.5158 35.8364 21.0268 35.1378C20.3981 34.0201 19.2804 33.3215 17.9531 33.2517C16.6957 33.3215 15.5081 34.0201 14.8794 35.1378C14.3904 35.8364 14.2507 35.9062 14.0411 35.9062C13.8316 35.9062 13.6919 35.8364 13.2029 35.1378C12.5742 34.0201 11.4565 33.3215 10.1292 33.2517C8.87177 33.3215 7.68421 33.9502 7.0555 35.0679C6.63636 35.6268 6.42679 35.8364 6.07751 35.9062C5.9378 35.9062 5.72823 35.9062 5.58852 35.9062H5.4488C5.37895 35.9062 5.23923 35.9062 5.16938 35.9062H4.95981L4.75024 35.8364H4.61053C3.98182 35.6268 3.49282 35.1378 3.28325 34.5091C2.86411 33.6009 2.86411 32.4832 3.14354 31.5751C3.28325 31.645 3.49282 31.7148 3.63254 31.7847H3.70239C3.8421 31.8545 4.05167 31.8545 4.19139 31.9244H4.3311C4.47081 31.9943 4.61053 31.9943 4.8201 31.9943H4.95981C5.16938 31.9943 5.37895 32.0641 5.58852 31.9943H52.8813C53.0909 31.9943 53.3005 31.9943 53.51 31.9943H53.5799C53.7196 31.9943 53.9292 31.9244 54.0689 31.9244H54.1387L54.6277 31.7847H54.6976C54.8373 31.7148 55.0469 31.645 55.1866 31.5751H55.2565C55.3962 31.8545 55.5359 32.2737 55.5359 32.623V32.7627C55.5359 33.6708 55.2565 34.5789 54.6976 35.3474ZM55.6756 26.4756C55.6756 27.3837 55.2565 28.222 54.5579 28.711L54.2785 28.8507C54.2086 28.9206 54.1387 28.9206 54.0689 28.9904L53.8593 29.1301L53.5799 29.2C53.51 29.2 53.4402 29.2 53.4402 29.2698C53.2306 29.3397 53.0909 29.3397 52.8813 29.3397H5.58852C5.37895 29.3397 5.23923 29.3397 5.02966 29.2698C4.88995 29.2698 4.82009 29.2 4.68038 29.2C4.61053 29.2 4.54067 29.2 4.54067 29.1301C4.40096 29.0603 4.26124 28.9904 4.12153 28.9206H4.05167C3.91196 28.8507 3.77225 28.711 3.63254 28.6411C3.00383 28.0823 2.65455 27.3837 2.65455 26.5454V25.777C2.65455 24.2402 3.91196 22.9129 5.51866 22.9129H6.84593L27.9426 28.0124C28.7809 28.222 29.6191 28.222 30.4574 28.0823L54.2785 23.3321C55.1866 23.821 55.7454 24.799 55.7454 25.777L55.6756 26.4756Z" fill="white"/>
</g>
</svg>
