<svg width="53" height="50" viewBox="0 0 53 50" fill="none" xmlns="http://www.w3.org/2000/svg">
<g id="Heart">
<path id="Vector" d="M48.1019 4.90329C45.433 2.11028 41.709 0.558602 37.7988 0.558602H37.6746C33.4541 0.620669 29.4197 2.11028 26.2543 4.84122C22.6544 1.61374 19.1787 0 16.0133 0C11.6686 0 7.44803 1.73787 4.40675 4.90329C2.11028 7.26183 0.558602 10.3031 0 13.5306L3.66195 14.2133C4.15848 11.6686 5.33776 9.37211 7.1377 7.5101C9.49624 5.08949 12.7237 3.72402 16.0753 3.72402C18.558 3.72402 21.6614 5.39982 24.9509 8.6273C25.6957 9.37211 26.9991 9.37211 27.7439 8.6273C30.3507 5.89636 33.9506 4.34469 37.7367 4.28262H37.7988C40.6538 4.28262 43.4469 5.39982 45.433 7.44803C47.8536 9.93071 49.157 13.2203 49.157 16.6339C49.157 18.0615 48.9087 19.5511 48.4122 20.9166H34.5092C34.0127 20.9166 33.5161 21.1028 33.1437 21.4752L27.4957 27.4336L20.9786 12.8479C20.5442 11.9169 19.489 11.4824 18.558 11.8548C18.1856 11.9789 17.9373 12.2272 17.6891 12.5996L12.5375 21.0407H0.620669V24.7647H13.5927C14.2754 24.7647 14.834 24.4544 15.2064 23.8958L18.9925 17.627L25.1992 31.6541C25.4474 32.2127 25.944 32.5851 26.5646 32.7093H26.875C27.3715 32.7093 27.8681 32.5231 28.2405 32.1507L35.254 24.7026H46.4261L45.4951 25.8198L26.3164 44.4399L11.11 29.7301L8.50317 32.3989L26.3164 49.5915L48.1019 28.5508C54.4327 21.9717 54.4327 11.5445 48.1019 4.96535V4.90329Z" fill="white"/>
</g>
</svg>
