<svg width="51" height="68" viewBox="0 0 51 68" fill="none" xmlns="http://www.w3.org/2000/svg">
<g id="Palm tree">
<g id="Group">
<g id="Group_2">
<path id="Vector" d="M24.607 18.5409C23.8377 18.5409 23.2068 17.9254 23.1761 17.1561C23.1607 16.3714 23.7762 15.7097 24.5609 15.6943C24.6378 15.6943 24.6994 15.6943 24.7763 15.6943C24.8378 15.6943 24.884 15.6943 24.9456 15.6943C24.9456 15.6943 24.9456 15.6943 24.9609 15.6943C25.7457 15.6943 26.3765 16.3252 26.3919 17.1099C26.3919 17.8947 25.7611 18.5409 24.9763 18.5409H24.6532C24.6224 18.5409 24.607 18.5409 24.607 18.5409Z" fill="white"/>
</g>
<g id="Group_3">
<path id="Vector_2" d="M26.6841 18.6032C26.6379 18.6032 26.6071 18.6032 26.561 18.6032C26.0686 18.557 25.5762 18.5417 25.0838 18.5417C24.2991 18.5417 23.6529 17.8954 23.6682 17.1107C23.6682 16.3259 24.3145 15.6797 25.0992 15.6797H25.13C25.6839 15.6797 26.2379 15.7105 26.8072 15.7566C27.1457 15.7874 27.4688 15.9259 27.6996 16.1721C28.1304 16.6029 28.2381 17.2338 27.9766 17.7877C27.7304 18.2801 27.2226 18.6032 26.6841 18.6032Z" fill="white"/>
</g>
<g id="Group_4">
<path id="Vector_3" d="M23.4982 18.6033C22.9442 18.6033 22.4365 18.2802 22.2057 17.7724C21.9595 17.2339 22.0672 16.5876 22.4826 16.1722C23.0212 15.6336 23.6059 15.1259 24.2213 14.6489C24.7291 14.2642 25.4215 14.2642 25.9293 14.6489C26.5294 15.0951 27.0987 15.5875 27.6218 16.1106C27.9142 16.3722 28.0988 16.7569 28.0988 17.1723C28.0988 17.957 27.468 18.5879 26.6832 18.6033C26.6371 18.6033 26.5909 18.6033 26.5448 18.6033C26.0524 18.5571 25.5754 18.5417 25.0984 18.5417H25.0676H25.0368H25.0215C24.9907 18.5417 24.9753 18.5417 24.9445 18.5417C24.8522 18.5417 24.7445 18.5417 24.6368 18.5417C24.2829 18.5571 23.9444 18.5725 23.6059 18.6033C23.5751 18.5879 23.5289 18.6033 23.4982 18.6033Z" fill="white"/>
</g>
<g id="Group_5">
<path id="Vector_4" d="M25.0833 17.2179C24.7756 17.2179 24.4832 17.1256 24.2216 16.9256C22.7137 15.787 21.0211 15.0022 19.1747 14.5868C18.9285 14.5252 18.6823 14.4791 18.4054 14.4329C17.913 14.356 17.4975 14.0175 17.3129 13.5559C15.4203 8.83208 11.5428 5.23155 6.71132 3.67747C6.12662 3.49283 5.72656 2.9389 5.72656 2.32342C5.72656 1.70795 6.12662 1.15402 6.71132 0.969375C8.69623 0.323125 10.7581 0 12.8507 0C16.9744 0 20.9288 1.24634 24.2832 3.60054C27.576 5.90857 30.0533 9.09366 31.4842 12.8173C31.6227 13.202 31.6073 13.6174 31.4227 13.9713C31.2381 14.3252 30.9149 14.6022 30.5149 14.6945C28.8377 15.1407 27.299 15.8793 25.9296 16.9256C25.6834 17.1102 25.391 17.2179 25.0833 17.2179ZM19.6517 11.771C19.6979 11.7864 19.7594 11.7864 19.8056 11.8018C21.6982 12.2326 23.4677 12.9865 25.0833 14.0329C26.0681 13.3866 27.1144 12.8481 28.2222 12.4326C25.391 6.64714 19.3901 2.84658 12.8507 2.84658C12.4968 2.84658 12.1429 2.86196 11.789 2.87735C15.2357 4.95458 17.9745 8.04735 19.6517 11.771Z" fill="white"/>
</g>
<g id="Group_6">
<path id="Vector_5" d="M48.6714 30.328C48.1791 30.328 47.7021 30.0664 47.4405 29.6356C45.2709 26.0043 41.4704 23.5885 37.2544 23.1731C36.962 23.1423 36.6697 23.0192 36.4389 22.8192C34.7771 21.3574 32.8845 20.2342 30.8073 19.4956C29.4378 19.0032 27.9915 18.6955 26.5451 18.5724C26.2066 18.5416 25.8988 18.4031 25.6526 18.157C25.2064 17.7107 24.7294 17.2953 24.2217 16.9106C23.8678 16.6337 23.6523 16.2182 23.6523 15.772C23.6523 15.3258 23.8678 14.8949 24.2217 14.6334C25.8988 13.3716 27.7606 12.4638 29.7917 11.9253C29.9764 11.8791 30.161 11.8329 30.3456 11.7868C31.5304 11.5098 32.746 11.3867 33.9616 11.3867C37.5775 11.3867 41.1319 12.6177 43.9784 14.8642C46.8712 17.1414 48.9176 20.3881 49.7331 23.9886C50.1178 25.6504 50.2255 27.3429 50.0717 29.0201C50.0101 29.6356 49.5639 30.1434 48.9638 30.2818C48.8715 30.3126 48.7638 30.328 48.6714 30.328ZM37.9929 20.3881C41.3627 20.8189 44.4862 22.296 46.9481 24.5425C45.5325 18.4801 40.2087 14.2487 33.977 14.2487C32.9768 14.2487 31.9767 14.3564 31.0073 14.5872C30.8534 14.618 30.6995 14.6641 30.5457 14.6949C29.5301 14.9565 28.5762 15.3412 27.6529 15.8335C29.0685 16.0182 30.4534 16.3413 31.792 16.8183C34.0539 17.6184 36.1465 18.8186 37.9929 20.3881Z" fill="white"/>
</g>
<g id="Group_7">
<path id="Vector_6" d="M23.482 18.6035C22.9281 18.6035 22.4203 18.2804 22.1895 17.7726C21.9434 17.234 22.0511 16.5878 22.4665 16.157C22.6973 15.9108 23.0204 15.7723 23.3589 15.7415C23.759 15.7107 24.1591 15.68 24.5591 15.68C25.3439 15.6646 26.0055 16.2801 26.0209 17.0648C26.0363 17.8495 25.4208 18.5112 24.6361 18.5265C24.2822 18.5419 23.9436 18.5573 23.6051 18.5881C23.5744 18.6035 23.5282 18.6035 23.482 18.6035Z" fill="white"/>
</g>
<g id="Group_8">
<path id="Vector_7" d="M24.9451 18.5253C24.1604 18.5253 23.5295 17.8944 23.5142 17.1097C23.5142 16.325 24.145 15.6787 24.9298 15.6787H24.9605C24.9913 15.6787 25.0221 15.6787 25.0529 15.6787H25.0836C25.8684 15.6787 26.4992 16.3096 26.4992 17.1097C26.4992 17.8944 25.8684 18.5407 25.0682 18.5407H24.9759C24.9759 18.5407 24.9759 18.5407 24.9605 18.5407L24.9451 18.5253Z" fill="white"/>
</g>
<g id="Group_9">
<path id="Vector_8" d="M1.49577 30.3273C1.38806 30.3273 1.28035 30.3119 1.17264 30.2965C0.572555 30.158 0.126335 29.6502 0.0647874 29.0348C-0.0890816 27.3576 0.0340137 25.665 0.403299 24.0032C1.21881 20.4027 3.26526 17.1715 6.158 14.8788C9.00458 12.6323 12.559 11.4014 16.1749 11.4014C17.0673 11.4014 17.9598 11.4783 18.8522 11.6168C19.1753 11.6783 19.4831 11.7245 19.7908 11.8014C22.7912 12.4785 25.5147 13.9864 27.6689 16.1713C28.0843 16.6021 28.2074 17.233 27.9459 17.7869C27.6997 18.3255 27.1304 18.6486 26.5303 18.6024C26.0225 18.5563 25.5147 18.5409 25.0223 18.5409C23.3913 18.5409 21.7757 18.7717 20.2216 19.2179C17.8213 19.9103 15.5594 21.1721 13.6822 22.8338C13.4514 23.0339 13.1744 23.157 12.8667 23.1877C8.65068 23.5878 4.85011 26.0035 2.68056 29.6502C2.46514 30.0657 2.00354 30.3273 1.49577 30.3273ZM16.2057 14.2479C9.97395 14.2479 4.65008 18.4793 3.23449 24.5418C5.69639 22.2799 8.81994 20.8028 12.1897 20.3873C14.3131 18.6024 16.8211 17.2484 19.4677 16.479C20.4678 16.1867 21.4987 15.9713 22.5297 15.8482C21.4834 15.2943 20.3601 14.8634 19.1907 14.6018C18.9445 14.5403 18.6983 14.4941 18.4214 14.448C17.6828 14.3095 16.9288 14.2479 16.2057 14.2479Z" fill="white"/>
</g>
<g id="Group_10">
<path id="Vector_9" d="M29.961 67.0103H14.2817C13.8663 67.0103 13.4509 66.8257 13.1893 66.5025C12.9277 66.1794 12.8046 65.7486 12.8815 65.3331L19.5287 28.7431C19.6364 28.1891 20.0518 27.7429 20.6058 27.6044C21.5136 27.389 22.4368 27.2505 23.36 27.1736C23.9601 27.1275 24.5448 27.0967 25.1141 27.0967C26.3759 27.0967 27.6684 27.2198 28.9147 27.466C29.5609 27.5891 30.0379 28.1584 30.0687 28.82L31.3766 65.5486C31.392 65.9332 31.2535 66.3179 30.9765 66.5949C30.715 66.8411 30.3457 67.0103 29.961 67.0103ZM15.9897 64.1483H28.4839L27.2683 30.0664C26.5451 29.974 25.8373 29.9279 25.1141 29.9279C24.6217 29.9279 24.114 29.9433 23.6062 29.9894C23.1292 30.0356 22.6368 30.0971 22.1598 30.1741L15.9897 64.1483Z" fill="white"/>
</g>
<g id="Group_11">
<path id="Vector_10" d="M42.7477 42.7597C42.1322 42.7597 41.5783 42.3596 41.3936 41.7749C39.4703 35.8509 34.4849 31.4195 28.3763 30.2501C27.2992 30.0347 26.1914 29.9424 25.1143 29.9424C24.6219 29.9424 24.1141 29.9578 23.6064 30.0039C22.8216 30.0655 22.0215 30.2039 21.2522 30.3732C20.7444 30.4963 20.2366 30.6348 19.7443 30.7887C14.5743 32.4966 10.4967 36.6049 8.81956 41.7749C8.63492 42.3596 8.08099 42.7597 7.46551 42.7597C6.85004 42.7597 6.29611 42.3596 6.11146 41.7749C5.46521 39.79 5.14209 37.7281 5.14209 35.6355C5.14209 30.604 7.01929 25.8033 10.4198 22.1104C13.8049 18.433 18.3902 16.1865 23.3602 15.7556C23.9449 15.7095 24.5296 15.6787 25.1143 15.6787C29.9919 15.6787 34.6849 17.4636 38.3316 20.6948C42.6092 24.48 45.0711 29.927 45.0711 35.6509C45.0711 37.7435 44.748 39.8054 44.1017 41.7903C43.9171 42.3596 43.3785 42.7597 42.7477 42.7597ZM25.1143 18.5253C24.6219 18.5253 24.1141 18.5407 23.6064 18.5868C14.8666 19.3562 8.00405 26.8342 8.00405 35.6355C8.00405 35.9894 8.01944 36.3433 8.03483 36.7126C10.4813 32.6966 14.3127 29.5885 18.8518 28.0959C19.4211 27.9113 20.0058 27.742 20.6059 27.6036C21.5138 27.3881 22.437 27.2497 23.3602 27.1727C23.9603 27.1266 24.545 27.0958 25.1143 27.0958C26.376 27.0958 27.6685 27.2189 28.9149 27.4651C34.5157 28.5422 39.301 31.9581 42.1784 36.7126C42.1938 36.3587 42.2091 36.0048 42.2091 35.6509C42.2091 30.7579 40.1011 26.0803 36.4391 22.8336C33.3155 20.0486 29.2995 18.5253 25.1143 18.5253Z" fill="white"/>
</g>
<g id="Group_12">
<path id="Vector_11" d="M44.2251 67.0094H2.86506C2.08033 67.0094 1.43408 66.3786 1.43408 65.5784C1.43408 64.7783 2.06495 64.1475 2.86506 64.1475H44.2097C44.9944 64.1475 45.6407 64.7783 45.6407 65.5784C45.6407 66.3786 45.0098 67.0094 44.2251 67.0094Z" fill="white"/>
</g>
</g>
</g>
</svg>
