<svg width="40" height="45" viewBox="0 0 40 45" fill="none" xmlns="http://www.w3.org/2000/svg">
<path d="M19.6049 18.8541C18.7719 18.8541 18.0811 18.1633 18.0811 17.3303V10.5646C18.0811 9.73154 18.7719 9.04074 19.6049 9.04074C20.4379 9.04074 21.1287 9.73154 21.1287 10.5646V17.3303C21.1287 18.1836 20.4379 18.8541 19.6049 18.8541Z" fill="white"/>
<path d="M19.6457 38.8269C14.4037 38.8269 9.1821 37.9939 4.20428 36.3278C2.35538 35.7183 0.953467 34.3977 0.343939 32.7316C-0.26559 31.0656 -0.0624136 29.1557 0.933149 27.4897L3.51349 23.1823C4.08238 22.2274 4.59032 20.4395 4.59032 19.322V15.0553C4.59032 6.74545 11.3358 0 19.6457 0C27.9556 0 34.7011 6.74545 34.7011 15.0553V19.322C34.7011 20.4191 35.209 22.2274 35.7779 23.1823L38.3582 27.4897C39.3132 29.0744 39.4757 30.964 38.8459 32.691C38.216 34.418 36.8344 35.7386 35.0871 36.3278C30.1093 38.0142 24.8877 38.8269 19.6457 38.8269ZM19.6457 3.06796C13.0221 3.06796 7.63796 8.45212 7.63796 15.0757V19.3423C7.63796 20.988 6.9878 23.3652 6.13446 24.7671L3.55412 29.0948C3.02586 29.9684 2.90396 30.903 3.20872 31.7157C3.51349 32.5284 4.20428 33.138 5.17953 33.463C14.5256 36.5716 24.8064 36.5716 34.1525 33.463C35.0262 33.1786 35.6966 32.5284 36.0014 31.6751C36.3265 30.8218 36.2249 29.8871 35.7576 29.0948L33.1773 24.7874C32.3239 23.3855 31.6738 21.0083 31.6738 19.3626V15.096C31.6534 8.45213 26.2693 3.06796 19.6457 3.06796Z" fill="white"/>
<path d="M19.605 44.0071C17.431 44.0071 15.2977 43.1131 13.7535 41.5689C12.2094 40.0248 11.3154 37.8915 11.3154 35.7175H14.3631C14.3631 37.0991 14.932 38.44 15.9072 39.4153C16.8824 40.3905 18.2234 40.9594 19.605 40.9594C22.4901 40.9594 24.8469 38.6026 24.8469 35.7175H27.8946C27.8946 40.2889 24.1764 44.0071 19.605 44.0071Z" fill="white"/>
</svg>
