<svg width="51" height="44" viewBox="0 0 51 44" fill="none" xmlns="http://www.w3.org/2000/svg">
<path d="M51 13.2483C50.997 12.3513 50.5882 11.5007 49.8819 10.9254C49.6856 10.7626 49.469 10.6234 49.2373 10.5109L26.8704 0.312323C26.0022 -0.104108 24.9843 -0.104108 24.115 0.312323L1.76235 10.505C1.05605 10.8415 0.504568 11.4237 0.217191 12.1382C-0.0701863 12.8516 -0.0722101 13.645 0.210108 14.3594C0.493437 15.0749 1.04087 15.661 1.74515 16.0015L11.35 20.6434V31.735C11.35 38.4986 17.4426 44 24.9327 44H26.0528C33.5418 44 39.6344 38.4976 39.6344 31.735V20.7036L44.3478 18.4034V22.4552C43.9653 22.6052 43.6375 22.8627 43.4068 23.1953C43.175 23.5278 43.0516 23.9206 43.0496 24.3222V31.069C43.0516 31.6028 43.2702 32.1159 43.6567 32.4929C44.0443 32.8709 44.5694 33.084 45.1179 33.085H45.2008C45.7493 33.083 46.2735 32.8709 46.662 32.4929C47.0496 32.115 47.2681 31.6028 47.2692 31.069V24.3222C47.2671 23.9206 47.1427 23.5278 46.912 23.1953C46.6802 22.8627 46.3534 22.6052 45.9709 22.4542V17.61L49.2646 16.0025C49.3972 15.9373 49.5257 15.8633 49.6481 15.7814C50.5022 15.2091 51.0091 14.2598 50.999 13.2493L51 13.2483ZM25.4932 3.17898L47.6203 13.2641L25.6187 24.0044L3.38239 13.2572L25.4932 3.17898ZM36.3893 31.7341C36.3893 36.751 31.7528 40.8334 26.0548 40.8334H24.9347C19.2357 40.8334 14.5992 36.7519 14.5992 31.7341V22.2114L24.2243 26.8632C25.1077 27.2875 26.1429 27.2856 27.0242 26.8583L36.3893 22.2874V31.7341Z" fill="white"/>
</svg>
