<svg width="50" height="50" viewBox="0 0 50 50" fill="none" xmlns="http://www.w3.org/2000/svg">
<path d="M16.7949 29.881C16.7949 34.2509 20.391 37.847 24.7609 37.847C29.1308 37.847 32.7269 34.2509 32.7269 29.881" stroke="#043F3F" stroke-width="4" stroke-miterlimit="10" stroke-linecap="round" stroke-linejoin="round"/>
<path d="M17.4989 2L9.25977 10.2619" stroke="#043F3F" stroke-width="4" stroke-miterlimit="10" stroke-linecap="round" stroke-linejoin="round"/>
<path d="M32.0195 2L40.2587 10.2619" stroke="#043F3F" stroke-width="4" stroke-miterlimit="10" stroke-linecap="round" stroke-linejoin="round"/>
<path d="M2 15.3146C2 11.104 4.25324 10.7626 7.05272 10.7626H42.4673C45.2668 10.7626 47.52 11.104 47.52 15.3146C47.52 20.208 45.2668 19.8666 42.4673 19.8666H7.05272C4.25324 19.8666 2 20.208 2 15.3146Z" stroke="#043F3F" stroke-width="4"/>
<path d="M5.41406 20.208L8.62322 39.8726C9.35154 44.2881 11.1041 47.52 17.6134 47.52H31.3377C38.4161 47.52 39.463 44.4246 40.2824 40.1458L44.1061 20.208" stroke="#043F3F" stroke-width="4" stroke-linecap="round"/>
</svg>
