<svg width="47" height="43" viewBox="0 0 47 43" fill="none" xmlns="http://www.w3.org/2000/svg">
<g id="&#240;&#159;&#166;&#134; icon &#34;cards&#34;">
<g id="Group">
<path id="Vector" d="M38.8935 24.3967H2.1419C1.25554 24.3967 0.520508 23.6616 0.520508 22.7753C0.520508 21.8889 1.25554 21.1539 2.1419 21.1539H38.8935C39.7799 21.1539 40.5149 21.8889 40.5149 22.7753C40.5149 23.6616 39.7799 24.3967 38.8935 24.3967Z" fill="#043F3F"/>
<path id="Vector_2" d="M30.7217 42.5345H10.3138C2.89862 42.5345 0.520508 40.178 0.520508 32.8493V17.7379C0.520508 11.9225 1.83929 8.48517 8.54105 8.09604C9.10314 8.07442 9.68686 8.05278 10.3138 8.05278H30.7217C38.1369 8.05278 40.5149 10.4092 40.5149 17.7379V33.1952C40.4285 40.2645 38.0504 42.5345 30.7217 42.5345ZM10.3138 11.2956C9.7301 11.2956 9.18963 11.3172 8.69241 11.3388C4.82268 11.5766 3.7633 12.3981 3.7633 17.7379V32.8493C3.7633 38.3837 4.67134 39.2917 10.3138 39.2917H30.7217C36.2993 39.2917 37.2073 38.4269 37.2721 33.1736V17.7379C37.2721 12.2036 36.3642 11.2956 30.7217 11.2956H10.3138Z" fill="#043F3F"/>
<path id="Vector_3" d="M38.8943 34.817C38.4835 34.817 38.0728 34.6657 37.7917 34.3847C37.4675 34.082 37.2729 33.6496 37.2729 33.1956V17.7383C37.2729 12.204 36.3649 11.296 30.7224 11.296H10.3145C9.73084 11.296 9.19038 11.3176 8.69315 11.3392C8.26078 11.3609 7.8283 11.1879 7.50402 10.8852C7.17974 10.5826 7.00684 10.1502 7.00684 9.69622C7.09331 2.64855 9.47142 0.378601 16.8001 0.378601H37.208C44.6232 0.378601 47.0013 2.73503 47.0013 10.0637V25.1751C47.0013 30.9905 45.6825 34.4279 38.9808 34.817C38.9591 34.817 38.9159 34.817 38.8943 34.817ZM10.3145 8.05321H30.7224C38.1376 8.05321 40.5157 10.4096 40.5157 17.7383V31.4013C43.0234 30.9473 43.7585 29.6502 43.7585 25.1751V10.0637C43.7585 4.52937 42.8505 3.62139 37.208 3.62139H16.8001C11.8711 3.62139 10.5956 4.29157 10.3145 8.05321Z" fill="#043F3F"/>
<path id="Vector_4" d="M12.8653 35.6387H9.14679C8.26042 35.6387 7.52539 34.9037 7.52539 34.0173C7.52539 33.131 8.26042 32.3959 9.14679 32.3959H12.8653C13.7516 32.3959 14.4867 33.131 14.4867 34.0173C14.4867 34.9037 13.7733 35.6387 12.8653 35.6387Z" fill="#043F3F"/>
<path id="Vector_5" d="M24.9489 35.6387H17.512C16.6257 35.6387 15.8906 34.9037 15.8906 34.0173C15.8906 33.131 16.6257 32.3959 17.512 32.3959H24.9489C25.8352 32.3959 26.5703 33.131 26.5703 34.0173C26.5703 34.9037 25.8568 35.6387 24.9489 35.6387Z" fill="#043F3F"/>
</g>
</g>
</svg>
