<svg width="43" height="43" viewBox="0 0 43 43" fill="none" xmlns="http://www.w3.org/2000/svg">
<g id="&#240;&#159;&#166;&#134; icon &#34;dollar circle&#34;">
<g id="Group">
<path id="Vector" d="M24.2785 32.3103H19.2631C15.9861 32.3103 13.3286 29.5528 13.3286 26.156C13.3286 25.3368 14.0079 24.6574 14.8272 24.6574C15.6464 24.6574 16.3258 25.3368 16.3258 26.156C16.3258 27.8944 17.6446 29.3131 19.2631 29.3131H24.2785C25.5773 29.3131 26.6562 28.1541 26.6562 26.7554C26.6562 25.0171 26.0368 24.6774 25.0178 24.3177L16.9652 21.4803C15.4066 20.9409 13.3086 19.7819 13.3086 16.2052C13.3086 13.1281 15.7263 10.6504 18.6837 10.6504H23.699C26.9759 10.6504 29.6335 13.4078 29.6335 16.8047C29.6335 17.6239 28.9541 18.3033 28.1349 18.3033C27.3156 18.3033 26.6363 17.6239 26.6363 16.8047C26.6363 15.0663 25.3175 13.6476 23.699 13.6476H18.6837C17.3848 13.6476 16.3058 14.8065 16.3058 16.2052C16.3058 17.9436 16.9252 18.2833 17.9444 18.643L25.9969 21.4803C27.5554 22.0198 29.6535 23.1788 29.6535 26.7554C29.6335 29.8126 27.2357 32.3103 24.2785 32.3103Z" fill="#043F3F"/>
<path id="Vector_2" d="M21.4801 34.9676C20.6608 34.9676 19.9814 34.2882 19.9814 33.469V9.49128C19.9814 8.67204 20.6608 7.99268 21.4801 7.99268C22.2993 7.99268 22.9787 8.67204 22.9787 9.49128V33.469C22.9787 34.2882 22.2993 34.9676 21.4801 34.9676Z" fill="#043F3F"/>
<path id="Vector_3" d="M21.48 42.96C9.63103 42.96 0 33.329 0 21.48C0 9.63103 9.63103 0 21.48 0C33.329 0 42.96 9.63103 42.96 21.48C42.96 33.329 33.329 42.96 21.48 42.96ZM21.48 2.99721C11.2895 2.99721 2.99721 11.2895 2.99721 21.48C2.99721 31.6705 11.2895 39.9628 21.48 39.9628C31.6705 39.9628 39.9628 31.6705 39.9628 21.48C39.9628 11.2895 31.6705 2.99721 21.48 2.99721Z" fill="#043F3F"/>
</g>
</g>
</svg>
