<svg width="49" height="49" viewBox="0 0 49 49" fill="none" xmlns="http://www.w3.org/2000/svg">
<g id="&#240;&#159;&#166;&#134; icon &#34;information&#34;">
<g id="Group">
<path id="Vector" d="M24.5127 48.9175C23.0781 48.9175 21.6663 48.4393 20.5506 47.4829L16.9529 44.4088C16.5885 44.09 15.6777 43.7713 15.1995 43.7713H11.2146C7.84454 43.7713 5.11205 41.0388 5.11205 37.6687V33.7749C5.11205 33.2967 4.79326 32.3858 4.49723 32.0443L1.4004 28.401C-0.466802 26.1922 -0.466802 22.731 1.4004 20.4995L4.49723 16.8561C4.79326 16.5145 5.11205 15.6037 5.11205 15.1255V11.2545C5.11205 7.88439 7.84454 5.1519 11.2146 5.1519H15.154C15.6322 5.1519 16.5202 4.81033 16.9073 4.49154L20.505 1.41748C22.7366 -0.472494 26.2205 -0.472494 28.452 1.41748L32.0498 4.49154C32.4142 4.81033 33.3478 5.12912 33.8259 5.12912H37.697C41.0671 5.12912 43.7996 7.86162 43.7996 11.2317V15.1027C43.7996 15.5809 44.1411 16.469 44.4599 16.8561L47.534 20.4539C49.4467 22.7083 49.4239 26.1922 47.534 28.401L44.4599 31.9987C44.1411 32.3858 43.8223 33.2739 43.8223 33.7521V37.6231C43.8223 40.9932 41.0898 43.7257 37.7197 43.7257H33.8487C33.3705 43.7257 32.4825 44.0673 32.0726 44.3861L28.4748 47.4601C27.359 48.4393 25.9245 48.9175 24.5127 48.9175ZM11.2146 8.56752C9.73452 8.56752 8.52767 9.77437 8.52767 11.2545V15.1255C8.52767 16.4234 7.93563 18.0629 7.09311 19.0649L3.99628 22.7083C3.22207 23.6419 3.22207 25.2814 3.99628 26.1922L7.07034 29.8127C7.89008 30.7463 8.5049 32.4542 8.5049 33.7521V37.6459C8.5049 39.126 9.71175 40.3329 11.1919 40.3329H15.154C16.4291 40.3329 18.1142 40.9477 19.1161 41.7902L22.7366 44.887C23.6702 45.684 25.3097 45.684 26.2433 44.887L29.8411 41.813C30.8657 40.9477 32.528 40.3556 33.8032 40.3556H37.6742C39.1543 40.3556 40.3612 39.1488 40.3612 37.6687V33.7976C40.3612 32.5225 40.976 30.8602 41.8185 29.8355L44.9153 26.215C45.7123 25.2814 45.7123 23.6419 44.9153 22.7083L41.8413 19.1104C40.976 18.0857 40.3839 16.4234 40.3839 15.1483V11.2545C40.3839 9.77437 39.1771 8.56752 37.697 8.56752H33.8259C32.528 8.56752 30.843 7.95271 29.8411 7.11019L26.2205 4.01335C25.2869 3.21638 23.6702 3.21638 22.7138 4.01335L19.1389 7.11019C18.1142 7.95271 16.4519 8.56752 15.154 8.56752H11.2146Z" fill="#043F3F"/>
<path id="Vector_2" d="M24.4919 35.551C23.2395 35.551 22.2148 34.5263 22.2148 33.2739C22.2148 32.0215 23.2168 30.9968 24.4919 30.9968C25.7443 30.9968 26.769 32.0215 26.769 33.2739C26.769 34.5263 25.7671 35.551 24.4919 35.551Z" fill="#043F3F"/>
<path id="Vector_3" d="M24.492 28.3779C23.5584 28.3779 22.7842 27.6037 22.7842 26.6701V15.649C22.7842 14.7154 23.5584 13.9412 24.492 13.9412C25.4256 13.9412 26.1998 14.7154 26.1998 15.649V26.6473C26.1998 27.6037 25.4484 28.3779 24.492 28.3779Z" fill="#043F3F"/>
</g>
</g>
</svg>
